<svg id="Capa_1" enable-background="new 0 0 512 512" height="512" viewBox="0 0 512 512" width="512" xmlns="http://www.w3.org/2000/svg"><g><g><g><path d="m163.661 405.535 29.413-15.282 215.998-216.15c2.813-2.814 4.394-6.632 4.394-10.614 0-3.981-1.58-7.8-4.394-10.614l-50.199-50.233c-5.857-5.862-15.355-5.862-21.213 0l-215.998 216.149-15.271 29.434z" fill="#fed843"/><path d="m413.465 163.49c0-3.981-1.58-7.8-4.394-10.614l-54.527 4.331-197.18 197.318 6.295 51.01 29.413-15.282 215.998-216.15c2.815-2.814 4.395-6.632 4.395-10.613z" fill="#fabe2c"/><path d="m508.999 146.44-36.957-49.294 19.627-58.41c1.819-5.416.409-11.396-3.639-15.426-4.048-4.029-10.032-5.408-15.433-3.562l-58.268 19.94-49.448-36.73c-4.585-3.405-10.704-3.912-15.784-1.304-5.081 2.607-8.242 7.875-8.154 13.588l.944 61.617-50.188 35.711c-4.653 3.311-7.024 8.978-6.117 14.62.908 5.641 4.938 10.277 10.394 11.959l58.854 18.142 18.43 58.801c1.709 5.452 6.362 9.46 12.004 10.339.772.12 1.544.179 2.312.179 4.833 0 9.431-2.341 12.267-6.375l35.428-50.405 61.578.629c.052.001.103.001.154.001 5.649 0 10.826-3.179 13.382-8.23 2.577-5.099 2.04-11.219-1.386-15.79z" fill="#f69"/><path d="m508.999 146.44-36.957-49.294 19.627-58.41c1.795-5.345.44-11.235-3.485-15.262l-133.636 133.729.281.087 18.429 58.801c1.709 5.452 6.362 9.46 12.004 10.339.773.12 1.544.179 2.312.179 4.833 0 9.431-2.342 12.267-6.375l35.428-50.405 61.578.63c.052.001.103.001.154.001 5.649 0 10.826-3.179 13.382-8.231 2.579-5.098 2.042-11.218-1.384-15.789z" fill="#e62e6b"/><path d="m193.07 390.255-71.411-71.461-117.265 117.347c-5.858 5.862-5.858 15.366 0 21.228l50.199 50.234c2.813 2.815 6.628 4.397 10.606 4.397s7.794-1.581 10.606-4.397z" fill="#00cc76"/><path d="m157.364 354.525-127.871 127.961 25.1 25.117c2.813 2.816 6.628 4.397 10.607 4.397 3.978 0 7.794-1.581 10.606-4.397l117.264-117.348z" fill="#00aa95"/></g></g><g><path d="m240.409 72.38c-31.381 0-56.911-25.53-56.911-56.911 0-8.284-6.716-15-15-15s-15 6.716-15 15c0 31.381-25.53 56.911-56.911 56.911-8.284 0-15 6.716-15 15v.18c0 8.284 6.716 15 15 15 31.381 0 56.911 25.53 56.911 56.91 0 8.284 6.716 15 15 15s15-6.716 15-15c0-31.38 25.53-56.91 56.911-56.91 8.284 0 15-6.716 15-15v-.18c0-8.285-6.716-15-15-15z" fill="#fed843"/><path d="m488.011 321.708c-29.439 0-53.39-23.951-53.39-53.391 0-8.284-6.716-15-15-15s-15 6.716-15 15c0 29.439-23.951 53.391-53.391 53.391-8.284 0-15 6.716-15 15v.171c0 8.284 6.716 15 15 15 29.439 0 53.391 23.95 53.391 53.39 0 8.284 6.716 15 15 15s15-6.716 15-15c0-29.439 23.95-53.39 53.39-53.39 8.284 0 15-6.716 15-15v-.171c0-8.285-6.716-15-15-15z" fill="#fabe2c"/></g></g></svg>